<?xml version="1.0" standalone="no"?>
<!DOCTYPE svg PUBLIC "-//W3C//DTD SVG 20010904//EN"
 "http://www.w3.org/TR/2001/REC-SVG-20010904/DTD/svg10.dtd">
<svg version="1.0" xmlns="http://www.w3.org/2000/svg"
 width="200.000000pt" height="200.000000pt" viewBox="0 0 200.000000 200.000000"
 preserveAspectRatio="xMidYMid meet">

<g transform="translate(0.000000,200.000000) scale(0.100000,-0.100000)"
fill="#fff" stroke="none">
<path d="M1102 1912 c-88 -112 -144 -170 -262 -274 -103 -91 -330 -269 -377
-296 -18 -11 -283 -477 -283 -499 0 -11 7 -26 15 -33 16 -14 25 -12 205 30
135 32 260 61 330 76 36 7 81 18 100 24 19 5 85 21 145 36 65 15 118 33 131
45 11 10 26 19 33 19 24 0 129 -111 149 -158 82 -191 -22 -391 -222 -425 -93
-16 -194 0 -264 42 -29 17 -59 31 -67 31 -19 0 -19 -34 0 -50 17 -14 20 -40 6
-40 -6 0 -37 25 -69 55 -33 30 -67 55 -76 55 -9 0 -16 -2 -16 -4 0 -14 49 -86
78 -114 39 -40 34 -53 -11 -29 -60 33 -167 149 -182 197 -7 21 -45 28 -45 9 0
-18 55 -110 117 -198 17 -24 17 -24 -4 -13 -56 30 -183 236 -183 296 0 15 -24
28 -34 19 -22 -22 11 -167 64 -277 85 -180 277 -324 496 -375 116 -27 222 -27
338 0 268 62 473 251 567 524 21 62 24 87 24 225 0 138 -3 163 -24 225 -72
209 -214 376 -401 470 -68 34 -203 75 -248 75 -19 0 -23 4 -19 18 3 9 24 69
46 132 54 154 54 230 -1 230 -10 0 -35 -22 -56 -48z m60 -8 c14 -13 -49 -210
-97 -304 -29 -58 -31 -56 70 -63 193 -14 397 -145 518 -332 27 -41 80 -155 73
-155 -3 0 -26 37 -53 82 -71 122 -177 222 -294 281 -52 26 -100 47 -106 47 -7
0 -13 4 -13 9 0 10 -48 19 -160 26 -47 4 -91 8 -97 10 -20 7 -15 49 12 102 13
26 27 62 31 78 7 28 3 26 -57 -31 -96 -93 -232 -207 -346 -291 -66 -49 -103
-83 -103 -95 0 -11 -7 -18 -18 -18 -12 0 -43 -42 -97 -132 -44 -73 -85 -139
-92 -146 -7 -7 -13 -17 -13 -21 0 -4 -9 -18 -20 -31 -11 -13 -19 -24 -18 -26
7 -6 371 69 633 131 33 8 77 17 98 21 69 12 102 98 74 188 -21 65 -7 85 28 41
24 -30 45 -101 45 -155 0 -19 6 -31 18 -34 10 -4 34 -23 53 -43 19 -20 25 -31
14 -23 -11 8 -22 18 -25 21 -3 4 -24 16 -48 28 -34 18 -42 26 -37 41 4 11 3
30 0 41 -6 18 -10 13 -25 -31 -10 -28 -24 -59 -33 -67 -14 -14 -847 -216 -856
-208 -2 3 54 106 125 230 l129 225 105 78 c224 164 493 411 546 501 18 31 26
36 36 25z m-414 -624 c14 -96 -69 -183 -189 -197 -38 -4 -49 -3 -49 8 0 19
111 142 168 185 50 38 65 39 70 4z m-404 -616 c3 -8 2 -12 -4 -9 -6 3 -10 10
-10 16 0 14 7 11 14 -7z m13 -49 c0 -8 -4 -12 -9 -9 -5 3 -6 10 -3 15 9 13 12
11 12 -6z"/>
</g>
</svg>
